<svg width="26" height="26" viewBox="0 0 26 26" fill="none" xmlns="http://www.w3.org/2000/svg">
<path d="M9.25 13L11.75 15.5L16.75 10.5M7.79375 3.87125C8.69038 3.79968 9.5416 3.44712 10.2263 2.86375C10.9999 2.20408 11.9833 1.84174 13 1.84174C14.0167 1.84174 15.0001 2.20408 15.7737 2.86375C16.4584 3.44712 17.3096 3.79968 18.2063 3.87125C19.2197 3.95187 20.1712 4.39103 20.8901 5.1099C21.609 5.82877 22.0481 6.78031 22.1287 7.79375C22.2003 8.69038 22.5529 9.5416 23.1362 10.2262C23.7959 10.9999 24.1583 11.9833 24.1583 13C24.1583 14.0167 23.7959 15.0001 23.1362 15.7737C22.5529 16.4584 22.2003 17.3096 22.1287 18.2062C22.0481 19.2197 21.609 20.1712 20.8901 20.8901C20.1712 21.609 19.2197 22.0481 18.2063 22.1287C17.3096 22.2003 16.4584 22.5529 15.7737 23.1362C15.0001 23.7959 14.0167 24.1583 13 24.1583C11.9833 24.1583 10.9999 23.7959 10.2263 23.1362C9.5416 22.5529 8.69038 22.2003 7.79375 22.1287C6.78031 22.0481 5.82878 21.609 5.1099 20.8901C4.39103 20.1712 3.95188 19.2197 3.87125 18.2062C3.79969 17.3096 3.44713 16.4584 2.86375 15.7737C2.20409 15.0001 1.84174 14.0167 1.84174 13C1.84174 11.9833 2.20409 10.9999 2.86375 10.2262C3.44713 9.5416 3.79969 8.69038 3.87125 7.79375C3.95188 6.78031 4.39103 5.82877 5.1099 5.1099C5.82878 4.39103 6.78031 3.95187 7.79375 3.87125Z" stroke="#FF0020" stroke-width="2" stroke-linecap="round" stroke-linejoin="round"/>
</svg>
