<svg width="21" height="16" viewBox="0 0 21 16" fill="none" xmlns="http://www.w3.org/2000/svg">
<path d="M1.00488 4L8.89488 9.26C9.22354 9.47928 9.60979 9.5963 10.0049 9.5963C10.4 9.5963 10.7862 9.47928 11.1149 9.26L19.0049 4M3.00488 15H17.0049C17.5353 15 18.044 14.7893 18.4191 14.4142C18.7942 14.0391 19.0049 13.5304 19.0049 13V3C19.0049 2.46957 18.7942 1.96086 18.4191 1.58579C18.044 1.21071 17.5353 1 17.0049 1H3.00488C2.47445 1 1.96574 1.21071 1.59067 1.58579C1.2156 1.96086 1.00488 2.46957 1.00488 3V13C1.00488 13.5304 1.2156 14.0391 1.59067 14.4142C1.96574 14.7893 2.47445 15 3.00488 15Z" stroke="#747474" stroke-width="2" stroke-linecap="round" stroke-linejoin="round"/>
</svg>
