<svg width="28" height="28" viewBox="0 0 28 28" fill="none" xmlns="http://www.w3.org/2000/svg">
<g clip-path="url(#clip0_7_178)">
<path d="M14.0833 2.92687C17.7171 2.92687 18.1481 2.94048 19.5839 3.00626C23.272 3.17411 24.9948 4.92407 25.1626 8.58503C25.2284 10.0197 25.2409 10.4507 25.2409 14.0844C25.2409 17.7193 25.2273 18.1491 25.1626 19.5838C24.9936 23.2414 23.2754 24.9947 19.5839 25.1626C18.1481 25.2283 17.7194 25.242 14.0833 25.242C10.4496 25.242 10.0186 25.2283 8.58396 25.1626C4.8867 24.9936 3.17304 23.2357 3.00519 19.5827C2.93941 18.148 2.9258 17.7182 2.9258 14.0833C2.9258 10.4495 2.94054 10.0197 3.00519 8.5839C3.17417 4.92407 4.89237 3.17298 8.58396 3.00513C10.0198 2.94048 10.4496 2.92687 14.0833 2.92687ZM14.0833 0.473755C10.3872 0.473755 9.9245 0.489633 8.47281 0.555412C3.53029 0.782237 0.783433 3.52456 0.556607 8.47162C0.489694 9.92444 0.473816 10.3872 0.473816 14.0833C0.473816 17.7794 0.489694 18.2433 0.555473 19.6949C0.782298 24.6375 3.52462 27.3843 8.47168 27.6111C9.9245 27.6769 10.3872 27.6928 14.0833 27.6928C17.7795 27.6928 18.2433 27.6769 19.695 27.6111C24.633 27.3843 27.3867 24.642 27.6101 19.6949C27.677 18.2433 27.6929 17.7794 27.6929 14.0833C27.6929 10.3872 27.677 9.92444 27.6112 8.47275C27.3889 3.53476 24.6432 0.783372 19.6961 0.556546C18.2433 0.489633 17.7795 0.473755 14.0833 0.473755V0.473755ZM14.0833 7.09479C10.2239 7.09479 7.09485 10.2238 7.09485 14.0833C7.09485 17.9427 10.2239 21.0729 14.0833 21.0729C17.9428 21.0729 21.0718 17.9438 21.0718 14.0833C21.0718 10.2238 17.9428 7.09479 14.0833 7.09479ZM14.0833 18.6198C11.5781 18.6198 9.54683 16.5897 9.54683 14.0833C9.54683 11.578 11.5781 9.54677 14.0833 9.54677C16.5886 9.54677 18.6198 11.578 18.6198 14.0833C18.6198 16.5897 16.5886 18.6198 14.0833 18.6198ZM21.3486 5.18605C20.4458 5.18605 19.7143 5.91756 19.7143 6.8192C19.7143 7.72083 20.4458 8.45234 21.3486 8.45234C22.2502 8.45234 22.9806 7.72083 22.9806 6.8192C22.9806 5.91756 22.2502 5.18605 21.3486 5.18605Z" fill="white"/>
</g>
<defs>
<clipPath id="clip0_7_178">
<rect width="27.219" height="27.219" fill="white" transform="translate(0.473816 0.473755)"/>
</clipPath>
</defs>
</svg>
