<svg width="25" height="24" viewBox="0 0 25 24" fill="none" xmlns="http://www.w3.org/2000/svg">
<path d="M17.6619 16.657L13.4189 20.9C13.2333 21.0857 13.013 21.233 12.7704 21.3336C12.5279 21.4341 12.2679 21.4859 12.0054 21.4859C11.7428 21.4859 11.4829 21.4341 11.2403 21.3336C10.9978 21.233 10.7774 21.0857 10.5919 20.9L6.34789 16.657C5.22911 15.5381 4.46722 14.1127 4.15857 12.5608C3.84993 11.009 4.00838 9.40047 4.61389 7.93868C5.2194 6.4769 6.24478 5.22749 7.56037 4.34846C8.87595 3.46943 10.4227 3.00024 12.0049 3.00024C13.5871 3.00024 15.1338 3.46943 16.4494 4.34846C17.765 5.22749 18.7904 6.4769 19.3959 7.93868C20.0014 9.40047 20.1598 11.009 19.8512 12.5608C19.5425 14.1127 18.7807 15.5381 17.6619 16.657V16.657Z" stroke="#747474" stroke-width="2" stroke-linecap="round" stroke-linejoin="round"/>
<path d="M15.0049 11C15.0049 11.7956 14.6888 12.5587 14.1262 13.1213C13.5636 13.6839 12.8005 14 12.0049 14C11.2092 14 10.4462 13.6839 9.88356 13.1213C9.32095 12.5587 9.00488 11.7956 9.00488 11C9.00488 10.2044 9.32095 9.44129 9.88356 8.87868C10.4462 8.31607 11.2092 8 12.0049 8C12.8005 8 13.5636 8.31607 14.1262 8.87868C14.6888 9.44129 15.0049 10.2044 15.0049 11V11Z" stroke="#747474" stroke-width="2" stroke-linecap="round" stroke-linejoin="round"/>
</svg>
