<svg width="18" height="22" viewBox="0 0 18 22" fill="none" xmlns="http://www.w3.org/2000/svg">
<path d="M16.1733 8.22668L5.51666 1.12001C5.01418 0.78477 4.43006 0.592361 3.82671 0.563355C3.22336 0.53435 2.62347 0.669836 2.09116 0.955334C1.55884 1.24083 1.11411 1.66561 0.804499 2.18427C0.494884 2.70293 0.332021 3.29597 0.333321 3.90001V18.11C0.33323 18.7135 0.496969 19.3057 0.807071 19.8234C1.11717 20.3411 1.562 20.7649 2.0941 21.0496C2.6262 21.3343 3.22561 21.4692 3.82837 21.4399C4.43114 21.4106 5.01465 21.2183 5.51666 20.8833L16.1733 13.7767C16.6298 13.4723 17.0042 13.0599 17.2631 12.5761C17.5219 12.0923 17.6574 11.5521 17.6574 11.0033C17.6574 10.4546 17.5219 9.91442 17.2631 9.43062C17.0042 8.94683 16.6298 8.53442 16.1733 8.23001V8.22668Z" fill="#FF0020"/>
</svg>
